<mxfile host="65bd71144e">
    <diagram id="KSOaeEeUZDqUTSTcDccj" name="Slider-Planning">
        <mxGraphModel dx="3770" dy="2508" grid="1" gridSize="10" guides="1" tooltips="1" connect="1" arrows="1" fold="1" page="1" pageScale="1" pageWidth="850" pageHeight="1100" math="0" shadow="0">
            <root>
                <mxCell id="0"/>
                <mxCell id="1" parent="0"/>
                <mxCell id="2" value="" style="rounded=1;whiteSpace=wrap;html=1;" vertex="1" parent="1">
                    <mxGeometry x="90" y="-360" width="330" height="590" as="geometry"/>
                </mxCell>
                <mxCell id="18" value="Screen" style="text;html=1;align=center;verticalAlign=middle;whiteSpace=wrap;rounded=0;" vertex="1" parent="1">
                    <mxGeometry x="120" y="-380" width="60" height="30" as="geometry"/>
                </mxCell>
                <mxCell id="19" value="&lt;h1 style=&quot;margin-top: 0px;&quot;&gt;Mobile:&lt;/h1&gt;" style="text;html=1;whiteSpace=wrap;overflow=hidden;rounded=0;align=center;verticalAlign=middle;labelBorderColor=none;fontStyle=4" vertex="1" parent="1">
                    <mxGeometry x="95" y="-460" width="110" height="30" as="geometry"/>
                </mxCell>
                <mxCell id="21" value="&lt;h1 style=&quot;margin-top: 0px;&quot;&gt;PC:&lt;/h1&gt;" style="text;html=1;whiteSpace=wrap;overflow=hidden;rounded=0;align=center;verticalAlign=middle;labelBorderColor=none;fontStyle=4" vertex="1" parent="1">
                    <mxGeometry x="730" y="-460" width="60" height="30" as="geometry"/>
                </mxCell>
                <mxCell id="22" value="" style="rounded=1;whiteSpace=wrap;html=1;" vertex="1" parent="1">
                    <mxGeometry x="720" y="-360" width="1510" height="1040" as="geometry"/>
                </mxCell>
                <mxCell id="31" value="" style="group" vertex="1" connectable="0" parent="1">
                    <mxGeometry x="-40" y="-210" width="580" height="280" as="geometry"/>
                </mxCell>
                <mxCell id="3" value="" style="rounded=1;whiteSpace=wrap;html=1;" vertex="1" parent="31">
                    <mxGeometry x="140" y="20" width="310" height="260" as="geometry"/>
                </mxCell>
                <mxCell id="15" value="" style="edgeStyle=none;html=1;" edge="1" parent="31" source="4" target="14">
                    <mxGeometry relative="1" as="geometry"/>
                </mxCell>
                <mxCell id="4" value="" style="triangle;whiteSpace=wrap;html=1;fillColor=#d5e8d4;strokeColor=#82b366;" vertex="1" parent="31">
                    <mxGeometry x="410" y="132.5" width="30" height="35" as="geometry"/>
                </mxCell>
                <mxCell id="17" value="" style="edgeStyle=none;html=1;" edge="1" parent="31" source="6" target="16">
                    <mxGeometry relative="1" as="geometry"/>
                </mxCell>
                <mxCell id="6" value="" style="triangle;whiteSpace=wrap;html=1;rotation=-180;fillColor=#d5e8d4;strokeColor=#82b366;" vertex="1" parent="31">
                    <mxGeometry x="150" y="132.5" width="30" height="35" as="geometry"/>
                </mxCell>
                <mxCell id="8" value="CARD" style="rounded=1;whiteSpace=wrap;html=1;" vertex="1" parent="31">
                    <mxGeometry x="220" y="30" width="150" height="240" as="geometry"/>
                </mxCell>
                <mxCell id="9" value="Slider" style="text;html=1;align=center;verticalAlign=middle;whiteSpace=wrap;rounded=0;" vertex="1" parent="31">
                    <mxGeometry x="160" width="60" height="30" as="geometry"/>
                </mxCell>
                <mxCell id="14" value="Next&lt;div&gt;Button&lt;/div&gt;" style="rounded=1;whiteSpace=wrap;html=1;fillColor=none;strokeColor=#000000;" vertex="1" parent="31">
                    <mxGeometry x="520" y="140" width="60" height="40" as="geometry"/>
                </mxCell>
                <mxCell id="16" value="&lt;br&gt;&lt;span style=&quot;color: rgb(0, 0, 0); font-family: Helvetica; font-size: 12px; font-style: normal; font-variant-ligatures: normal; font-variant-caps: normal; font-weight: 400; letter-spacing: normal; orphans: 2; text-align: center; text-indent: 0px; text-transform: none; widows: 2; word-spacing: 0px; -webkit-text-stroke-width: 0px; white-space: normal; background-color: rgb(251, 251, 251); text-decoration-thickness: initial; text-decoration-style: initial; text-decoration-color: initial; float: none; display: inline !important;&quot;&gt;Previous&lt;/span&gt;&lt;div&gt;&lt;span style=&quot;color: rgb(0, 0, 0); font-family: Helvetica; font-size: 12px; font-style: normal; font-variant-ligatures: normal; font-variant-caps: normal; font-weight: 400; letter-spacing: normal; orphans: 2; text-align: center; text-indent: 0px; text-transform: none; widows: 2; word-spacing: 0px; -webkit-text-stroke-width: 0px; white-space: normal; background-color: rgb(251, 251, 251); text-decoration-thickness: initial; text-decoration-style: initial; text-decoration-color: initial; float: none; display: inline !important;&quot;&gt;Button&lt;/span&gt;&lt;br&gt;&lt;br&gt;&lt;/div&gt;" style="rounded=1;whiteSpace=wrap;html=1;fillColor=none;strokeColor=#000000;" vertex="1" parent="31">
                    <mxGeometry y="145" width="70" height="35" as="geometry"/>
                </mxCell>
                <mxCell id="32" value="" style="group" vertex="1" connectable="0" parent="1">
                    <mxGeometry x="720" y="-110" width="1500" height="490" as="geometry"/>
                </mxCell>
                <mxCell id="33" value="" style="rounded=1;whiteSpace=wrap;html=1;" vertex="1" parent="32">
                    <mxGeometry x="160" y="35" width="1200" height="425" as="geometry"/>
                </mxCell>
                <mxCell id="35" value="" style="triangle;whiteSpace=wrap;html=1;fillColor=#d5e8d4;strokeColor=#82b366;" vertex="1" parent="32">
                    <mxGeometry x="1405.004827586207" y="231.875" width="77.58620689655173" height="61.25000000000001" as="geometry"/>
                </mxCell>
                <mxCell id="37" value="" style="triangle;whiteSpace=wrap;html=1;rotation=-180;fillColor=#d5e8d4;strokeColor=#82b366;" vertex="1" parent="32">
                    <mxGeometry x="30.001034482758598" y="231.875" width="77.58620689655173" height="61.25000000000001" as="geometry"/>
                </mxCell>
                <mxCell id="38" value="CARD" style="rounded=1;whiteSpace=wrap;html=1;fontSize=20;" vertex="1" parent="32">
                    <mxGeometry x="580" y="48.75" width="371.03" height="397.5" as="geometry"/>
                </mxCell>
                <mxCell id="39" value="&lt;font&gt;Slider&lt;/font&gt;" style="text;html=1;align=center;verticalAlign=middle;whiteSpace=wrap;rounded=0;fontSize=20;" vertex="1" parent="32">
                    <mxGeometry x="160.00310344827582" width="155.17241379310346" height="52.5" as="geometry"/>
                </mxCell>
                <mxCell id="53" value="CARD" style="rounded=1;whiteSpace=wrap;html=1;fontSize=20;" vertex="1" parent="32">
                    <mxGeometry x="970" y="46.25" width="371.03" height="397.5" as="geometry"/>
                </mxCell>
                <mxCell id="54" value="&lt;font&gt;CARD&lt;/font&gt;" style="rounded=1;whiteSpace=wrap;html=1;fontSize=20;" vertex="1" parent="32">
                    <mxGeometry x="190" y="46.25" width="371.03" height="397.5" as="geometry"/>
                </mxCell>
                <mxCell id="41" value="&lt;br&gt;&lt;span style=&quot;color: rgb(0, 0, 0); font-family: Helvetica; font-style: normal; font-variant-ligatures: normal; font-variant-caps: normal; font-weight: 400; letter-spacing: normal; orphans: 2; text-align: center; text-indent: 0px; text-transform: none; widows: 2; word-spacing: 0px; -webkit-text-stroke-width: 0px; white-space: normal; background-color: rgb(251, 251, 251); text-decoration-thickness: initial; text-decoration-style: initial; text-decoration-color: initial; float: none; display: inline !important;&quot;&gt;Previous&lt;/span&gt;&lt;div&gt;&lt;span style=&quot;color: rgb(0, 0, 0); font-family: Helvetica; font-style: normal; font-variant-ligatures: normal; font-variant-caps: normal; font-weight: 400; letter-spacing: normal; orphans: 2; text-align: center; text-indent: 0px; text-transform: none; widows: 2; word-spacing: 0px; -webkit-text-stroke-width: 0px; white-space: normal; background-color: rgb(251, 251, 251); text-decoration-thickness: initial; text-decoration-style: initial; text-decoration-color: initial; float: none; display: inline !important;&quot;&gt;Button&lt;/span&gt;&lt;br&gt;&lt;br&gt;&lt;/div&gt;" style="rounded=1;whiteSpace=wrap;html=1;fillColor=none;strokeColor=#000000;fontSize=20;" vertex="1" parent="1">
                    <mxGeometry x="531" y="186" width="100" height="64" as="geometry"/>
                </mxCell>
                <mxCell id="36" value="" style="edgeStyle=none;html=1;" edge="1" parent="1" source="37" target="41">
                    <mxGeometry relative="1" as="geometry"/>
                </mxCell>
                <mxCell id="40" value="Next&lt;div&gt;Button&lt;/div&gt;" style="rounded=1;whiteSpace=wrap;html=1;fillColor=none;strokeColor=#000000;fontSize=20;" vertex="1" parent="1">
                    <mxGeometry x="2317.997586206897" y="140.00000000000003" width="80" height="60" as="geometry"/>
                </mxCell>
                <mxCell id="34" value="" style="edgeStyle=none;html=1;" edge="1" parent="1" source="35" target="40">
                    <mxGeometry relative="1" as="geometry"/>
                </mxCell>
            </root>
        </mxGraphModel>
    </diagram>
</mxfile>